<?xml version="1.0" encoding="UTF-8" standalone="no"?>
<svg sodipodi:docname="heliocentric.svg" id="svg30" version="1.1" viewBox="0 0 100 100" inkscape:version="1.1 (c68e22c387, 2021-05-23)" xmlns:inkscape="http://www.inkscape.org/namespaces/inkscape" xmlns:sodipodi="http://sodipodi.sourceforge.net/DTD/sodipodi-0.dtd" xmlns="http://www.w3.org/2000/svg" xmlns:svg="http://www.w3.org/2000/svg">
  <defs id="defs34" />
  <sodipodi:namedview id="namedview32" pagecolor="#ffffff" bordercolor="#666666" borderopacity="1.0" inkscape:pageshadow="2" inkscape:pageopacity="0.0" inkscape:pagecheckerboard="0" showgrid="false" inkscape:zoom="9.5600837" inkscape:cx="53.608317" inkscape:cy="50.156465" inkscape:window-width="2400" inkscape:window-height="1271" inkscape:window-x="2391" inkscape:window-y="-9" inkscape:window-maximized="1" inkscape:current-layer="svg30" />
  <path d="M 5,60 A 27.230515,51.057215 60 1 1 95,40" id="path2" style="fill:none;stroke:#000000;stroke-width:0.2" />
  <path d="M 10,60 A 22.835113,45.670226 60 1 1 90,40" id="path4" style="fill:none;stroke:#000000;stroke-width:0.2" />
  <path d="M 15,60 A 18.699713,40.070814 60 1 1 85,40" id="path6" style="fill:none;stroke:#000000;stroke-width:0.2" />
  <path d="M 20,60 A 14.846647,34.261493 60 1 1 80,40" id="path8" style="fill:none;stroke:#000000;stroke-width:0.2" />
  <path id="circle10" style="fill:#cc00cc;stroke-width:0.22227" d="m 55.884091,18.483109 a 4.4454003,4.4454003 0 0 1 -4.4454,4.4454 4.4454003,4.4454003 0 0 1 -4.445401,-4.4454 4.4454003,4.4454003 0 0 1 4.445401,-4.4454 4.4454003,4.4454003 0 0 1 4.4454,4.4454 z" />
  <path id="circle12" style="fill:#ffdd00;stroke-width:0.2" d="M 75,50 A 25,25 0 0 1 50,75 25,25 0 0 1 25,50 25,25 0 0 1 50,25 25,25 0 0 1 75,50 Z" />
  <path d="M 5,60 A 27.230515,51.057215 60 0 0 95,40" id="path14" style="fill:none;stroke:#000000;stroke-width:0.2" />
  <path d="M 10,60 A 22.835113,45.670226 60 0 0 90,40" id="path16" style="fill:none;stroke:#000000;stroke-width:0.2" />
  <path d="M 15,60 A 18.699713,40.070814 60 0 0 85,40" id="path18" style="fill:none;stroke:#000000;stroke-width:0.2" />
  <path d="M 20,60 A 14.846647,34.261493 60 0 0 80,40" id="path20" style="fill:none;stroke:#000000;stroke-width:0.2" />
  <path id="circle24" style="fill:#ff0000;stroke-width:1.11135" d="m 63.336202,60.230672 a 2.2227002,2.2227002 0 0 1 -2.222701,2.2227 2.2227002,2.2227002 0 0 1 -2.2227,-2.2227 2.2227002,2.2227002 0 0 1 2.2227,-2.2227 2.2227002,2.2227002 0 0 1 2.222701,2.2227 z" />
  <path id="circle26" style="fill:#00ff00;stroke-width:1.11135" d="m 87.171494,22.209499 a 3.3340503,3.3340503 0 0 1 -3.33405,3.33405 3.3340503,3.3340503 0 0 1 -3.33405,-3.33405 3.3340503,3.3340503 0 0 1 3.33405,-3.33405 3.3340503,3.3340503 0 0 1 3.33405,3.33405 z" />
  <path id="circle28" style="fill:#f57900;stroke-width:1.11135" d="m 26.714117,75.004894 a 3.3340503,3.3340503 0 0 1 -3.334051,3.33405 3.3340503,3.3340503 0 0 1 -3.33405,-3.33405 3.3340503,3.3340503 0 0 1 3.33405,-3.334051 3.3340503,3.3340503 0 0 1 3.334051,3.334051 z" />
</svg>
